<?xml version="1.0" encoding="UTF-8"?>
<svg width="22px" height="22px" viewBox="0 0 22 22" version="1.1" xmlns="http://www.w3.org/2000/svg" xmlns:xlink="http://www.w3.org/1999/xlink">
    <!-- Generator: Sketch 49.3 (51167) - http://www.bohemiancoding.com/sketch -->
    <title>Group 13</title>
    <desc>Created with Sketch.</desc>
    <defs></defs>
    <g id="投保流程" stroke="none" stroke-width="1" fill="none" fill-rule="evenodd">
        <g id="e1.2投保信息-填写完成" transform="translate(-336.000000, -334.000000)">
            <g id="Group-8-Copy" transform="translate(15.000000, 333.000000)">
                <g id="Group-13" transform="translate(321.000000, 1.000000)">
                    <rect id="Rectangle-12" fill="#DDDDDD" x="0" y="2.61904762" width="22" height="19.3809524" rx="2"></rect>
                    <rect id="Rectangle-12" fill="#FFFFFF" x="0.88" y="3.4047619" width="20.24" height="17.6785714" rx="2"></rect>
                    <rect id="Rectangle-13" fill="#DDDDDD" x="2.55813953" y="8.9047619" width="4.60465116" height="1.57142857"></rect>
                    <rect id="Rectangle-13-Copy" fill="#DDDDDD" x="8.69767442" y="8.9047619" width="4.60465116" height="1.57142857"></rect>
                    <rect id="Rectangle-13-Copy-8" fill="#DDDDDD" x="14.8372093" y="8.9047619" width="4.60465116" height="1.57142857"></rect>
                    <rect id="Rectangle-13-Copy-6" fill="#DDDDDD" transform="translate(5.116279, 3.404762) rotate(-270.000000) translate(-5.116279, -3.404762) " x="2.04651163" y="2.61904762" width="6.13953488" height="1.57142857"></rect>
                    <rect id="Rectangle-13-Copy-7" fill="#DDDDDD" transform="translate(17.395349, 3.404762) rotate(-270.000000) translate(-17.395349, -3.404762) " x="14.3255814" y="2.61904762" width="6.13953488" height="1.57142857"></rect>
                    <rect id="Rectangle-13-Copy-2" fill="#DDDDDD" x="2.55813953" y="13.0952381" width="4.60465116" height="1.57142857"></rect>
                    <rect id="Rectangle-13-Copy-3" fill="#DDDDDD" x="8.69767442" y="13.0952381" width="4.60465116" height="1.57142857"></rect>
                    <rect id="Rectangle-13-Copy-9" fill="#DDDDDD" x="14.8372093" y="13.0952381" width="4.60465116" height="1.57142857"></rect>
                    <rect id="Rectangle-13-Copy-4" fill="#DDDDDD" x="2.55813953" y="17.2857143" width="4.60465116" height="1.57142857"></rect>
                    <rect id="Rectangle-13-Copy-5" fill="#DDDDDD" x="8.69767442" y="17.2857143" width="4.60465116" height="1.57142857"></rect>
                    <rect id="Rectangle-13-Copy-10" fill="#DDDDDD" x="14.8372093" y="17.2857143" width="4.60465116" height="1.57142857"></rect>
                </g>
            </g>
        </g>
    </g>
</svg>